<?xml version="1.0" standalone="no"?>
<!DOCTYPE svg PUBLIC "-//W3C//DTD SVG 20010904//EN"
 "http://www.w3.org/TR/2001/REC-SVG-20010904/DTD/svg10.dtd">
<svg version="1.0" xmlns="http://www.w3.org/2000/svg"
 width="1512.000000pt" height="1512.000000pt" viewBox="0 0 1512.000000 1512.000000"
 preserveAspectRatio="xMidYMid meet">
<metadata>
Created by potrace 1.14, written by Peter Selinger 2001-2017
</metadata>
<g transform="translate(0.000000,1512.000000) scale(0.100000,-0.100000)"
fill="#000000" stroke="none">
<path d="M6949 11300 c-15 -23 -64 -37 -324 -96 -102 -23 -174 -34 -198 -31
-37 5 -38 4 -33 -18 3 -13 11 -59 17 -102 6 -43 13 -81 16 -86 8 -13 23 3 23
26 0 83 54 152 126 163 25 3 49 3 54 -2 5 -5 23 -68 40 -139 16 -72 43 -188
60 -258 16 -71 30 -142 30 -158 0 -29 -2 -31 -68 -54 -7 -3 -11 -9 -8 -13 4
-7 127 17 274 53 38 9 24 26 -20 23 -36 -3 -44 0 -54 22 -17 34 -124 501 -124
539 0 27 4 31 41 41 22 6 55 8 72 5 38 -8 91 -56 108 -96 13 -32 29 -39 28
-11 0 27 -35 202 -41 207 -3 3 -11 -4 -19 -15z"/>
<path d="M7383 11303 c-43 -116 -227 -563 -245 -595 -16 -30 -32 -45 -55 -52
-18 -5 -33 -13 -33 -18 0 -12 260 -5 260 7 1 6 -15 13 -34 16 -48 8 -66 26
-66 65 0 32 62 204 83 232 7 9 36 12 100 10 l89 -3 70 -133 c39 -73 67 -139
64 -147 -3 -8 -17 -15 -31 -15 -14 0 -25 -6 -25 -13 0 -10 27 -12 123 -9 67 2
128 5 135 8 19 6 5 24 -18 24 -29 0 -56 42 -222 350 -151 278 -179 317 -195
273z m34 -217 l39 -73 -70 -6 c-39 -4 -71 -5 -73 -3 -3 3 58 156 63 156 1 0
20 -33 41 -74z"/>
<path d="M8068 11271 c-103 -34 -146 -138 -98 -237 12 -24 54 -72 99 -113 96
-87 126 -140 117 -209 -9 -67 -43 -96 -108 -90 -74 8 -112 51 -152 176 -10 28
-21 52 -26 52 -10 0 -20 -61 -23 -140 l-2 -54 50 -28 c138 -75 297 -48 353 62
47 94 24 157 -103 278 -105 99 -131 141 -121 195 14 74 75 104 149 73 30 -12
43 -27 62 -68 14 -29 25 -62 25 -73 0 -23 16 -52 24 -44 9 9 28 150 22 165
-16 41 -197 78 -268 55z"/>
<path d="M8532 11114 c-24 -53 -40 -99 -37 -102 3 -3 24 13 48 35 53 51 76 63
124 63 49 0 87 -20 91 -47 4 -27 -173 -522 -193 -542 -11 -12 -21 -12 -50 -4
-22 7 -37 8 -41 1 -3 -5 -4 -10 -3 -12 8 -5 245 -88 267 -93 33 -8 26 11 -10
28 -29 12 -33 19 -32 49 2 40 168 508 189 529 11 11 20 11 51 1 74 -24 107
-73 103 -153 -2 -28 1 -52 6 -54 10 -2 71 137 82 184 5 21 2 22 -23 17 -46 -9
-496 152 -508 181 -11 28 -21 14 -64 -81z"/>
<path d="M5715 10852 c-110 -59 -198 -112 -195 -117 3 -6 10 -8 15 -6 29 11
62 11 72 -1 14 -17 242 -443 259 -484 13 -31 12 -34 -16 -58 -32 -27 -37 -36
-17 -36 23 1 412 218 415 232 4 19 -54 148 -66 148 -6 0 -12 -29 -14 -65 -4
-73 -26 -105 -104 -150 -75 -44 -83 -40 -153 88 -33 62 -61 118 -61 123 0 12
93 59 136 68 25 6 37 2 63 -20 18 -14 34 -24 37 -21 7 7 -88 187 -98 187 -4 0
-7 -16 -6 -35 1 -21 -6 -43 -17 -55 -25 -27 -124 -82 -139 -77 -6 3 -33 48
-60 101 -60 117 -58 132 18 169 30 15 69 27 86 27 34 0 79 -20 99 -44 7 -9 17
-13 23 -10 9 5 -42 106 -66 131 -8 9 -58 -14 -211 -95z"/>
<path d="M9270 10903 c0 -5 11 -19 25 -31 14 -12 25 -28 25 -35 0 -18 -277
-489 -297 -504 -12 -10 -23 -9 -49 2 -26 11 -34 11 -34 2 0 -12 388 -247 408
-247 12 0 102 123 102 139 0 17 -9 13 -41 -14 -34 -28 -84 -40 -132 -31 -42 8
-131 66 -135 89 -2 9 26 69 63 131 l66 114 60 -35 c76 -46 94 -70 85 -123 -3
-22 -3 -40 2 -40 10 0 114 182 107 188 -3 3 -14 -3 -25 -13 -34 -31 -97 -16
-187 42 l-22 14 51 87 c62 106 75 122 103 122 28 0 109 -52 130 -84 11 -17 16
-42 14 -77 -2 -29 1 -54 6 -56 11 -3 75 108 75 129 0 7 -83 61 -184 120 -197
116 -216 125 -216 111z"/>
<path d="M5312 10618 c-17 -18 -63 -58 -101 -88 -39 -30 -70 -61 -70 -67 -1
-18 7 -16 36 7 43 34 35 40 206 -156 18 -21 18 -22 -112 -133 -72 -61 -134
-111 -140 -111 -15 0 -161 180 -161 200 0 9 10 29 21 44 43 55 8 35 -100 -55
-105 -88 -139 -134 -65 -88 l35 21 26 -23 c52 -49 363 -423 363 -438 0 -8 -9
-25 -21 -37 -12 -12 -19 -28 -17 -35 2 -7 29 10 65 42 33 30 83 72 111 94 28
22 51 43 52 48 0 12 -24 7 -44 -8 -11 -8 -28 -15 -38 -15 -14 0 -186 183 -196
209 -2 6 196 180 249 219 16 11 28 0 108 -94 50 -59 91 -113 91 -120 0 -7 -11
-26 -25 -42 -50 -59 -10 -38 96 51 60 50 109 94 109 99 0 12 -14 10 -36 -7
-43 -33 -55 -23 -235 191 -96 113 -180 216 -186 229 -11 21 -10 27 12 53 14
17 25 33 25 36 0 16 -29 3 -58 -26z"/>
<path d="M7180 10360 c-799 -108 -1496 -517 -1981 -1164 -49 -65 -89 -124 -89
-131 0 -16 27 -45 41 -45 13 0 31 22 123 145 304 411 746 748 1234 939 211 84
418 138 682 178 116 18 624 18 745 0 468 -69 855 -217 1236 -473 263 -176 529
-435 713 -694 62 -86 76 -98 100 -89 32 12 29 44 -11 101 -136 198 -373 451
-568 607 -442 352 -946 564 -1505 631 -176 21 -544 19 -720 -5z"/>
<path d="M9827 10220 c-147 -65 -292 -127 -321 -136 -50 -16 -56 -16 -86 0
-18 9 -36 14 -39 11 -5 -6 179 -184 192 -185 13 0 7 21 -13 47 -46 59 -19 92
125 157 l99 45 35 -29 c20 -15 51 -44 70 -64 l34 -35 -38 -135 c-20 -74 -43
-143 -50 -153 -12 -15 -16 -16 -39 -4 -43 23 -43 3 0 -32 21 -17 65 -56 97
-86 31 -30 59 -52 62 -49 3 3 1 18 -5 34 -15 38 -12 52 86 399 46 165 84 308
84 318 0 9 -6 17 -12 17 -7 0 -133 -54 -281 -120z m153 9 c0 -20 -42 -149 -48
-149 -4 0 -28 21 -55 48 l-48 47 68 32 c77 36 83 37 83 22z"/>
<path d="M4634 10025 c10 -28 -276 -420 -322 -440 -12 -5 -22 -12 -22 -15 0
-6 111 -106 142 -129 30 -21 32 -6 5 41 -33 56 -41 100 -28 141 15 43 65 92
83 81 39 -24 435 -323 447 -337 12 -15 11 -23 -4 -57 -10 -22 -16 -43 -13 -46
6 -5 188 229 188 241 0 14 -24 2 -42 -20 -11 -14 -28 -25 -38 -25 -30 0 -464
332 -468 359 -4 28 66 101 99 102 43 2 73 -3 106 -16 58 -24 44 1 -37 69 -78
65 -108 81 -96 51z"/>
<path d="M10367 9962 c-81 -52 -105 -86 -43 -62 48 18 120 12 157 -13 40 -27
65 -67 56 -90 -8 -22 -446 -347 -466 -347 -8 0 -27 12 -43 27 -57 54 -38 11
42 -99 99 -134 98 -133 106 -125 4 4 -1 22 -11 41 -10 18 -15 41 -12 49 9 24
444 347 467 347 22 0 65 -53 75 -93 9 -33 -16 -106 -45 -132 -22 -20 -26 -35
-10 -35 14 0 180 111 180 120 0 4 -10 10 -23 13 -13 4 -63 60 -128 144 -164
214 -202 271 -196 293 8 30 -9 24 -106 -38z"/>
<path d="M7260 9894 c-298 -40 -536 -112 -800 -242 -429 -211 -817 -577 -1046
-987 l-45 -80 -2665 3 c-1879 1 -2671 -1 -2685 -9 -15 -8 -19 -19 -17 -42 l3
-32 2658 -3 c1461 -1 2657 -5 2657 -8 0 -3 -17 -46 -39 -97 -21 -51 -51 -129
-66 -174 l-28 -83 -351 0 c-261 0 -355 -3 -364 -12 -18 -18 -14 -56 7 -68 13
-6 142 -10 351 -10 l332 0 -7 -27 c-3 -15 -11 -52 -16 -83 -6 -30 -12 -63 -15
-72 -5 -17 -38 -18 -517 -18 -282 0 -517 -4 -523 -8 -19 -13 -23 -39 -8 -61
15 -21 17 -21 526 -21 l510 0 -5 -22 c-3 -13 -9 -58 -13 -100 l-7 -78 -654 -2
c-635 -3 -655 -4 -669 -22 -18 -26 -18 -32 6 -56 20 -20 33 -20 670 -20 l650
0 0 -100 0 -100 -498 0 c-374 0 -501 -3 -510 -12 -17 -17 -15 -44 4 -62 14
-14 74 -16 515 -16 l499 0 4 -22 c3 -13 8 -48 11 -78 3 -30 9 -65 12 -77 l5
-23 -346 0 c-337 0 -347 -1 -367 -21 -18 -18 -19 -23 -6 -42 14 -22 17 -22
375 -25 l361 -2 11 -43 c21 -83 90 -286 125 -367 19 -45 35 -84 35 -86 0 -2
-1190 -4 -2644 -4 -1454 0 -2651 -3 -2660 -6 -19 -7 -21 -55 -4 -72 9 -9 619
-12 2683 -12 l2672 0 68 -112 c207 -344 513 -652 843 -852 396 -240 818 -357
1282 -357 416 0 793 93 1159 287 391 207 742 542 970 927 l63 107 2672 0
c2065 0 2675 3 2684 12 17 17 15 65 -4 72 -9 3 -1206 6 -2661 6 -2112 0 -2644
3 -2640 13 68 164 101 252 123 326 l27 91 342 0 c252 0 344 3 353 12 17 17 15
44 -4 62 -13 14 -58 16 -340 16 -288 0 -324 2 -324 16 0 8 7 53 17 100 l16 84
515 2 515 3 8 23 c6 17 4 27 -11 42 -19 19 -35 20 -521 20 l-501 0 6 31 c3 17
6 62 6 100 l0 69 644 0 c354 0 652 3 660 6 26 10 38 41 26 64 -11 20 -21 20
-670 20 l-660 0 0 68 c0 37 -3 84 -6 105 l-7 37 505 0 c379 0 507 3 516 12 17
17 15 42 -6 61 -17 15 -67 17 -520 17 l-501 0 -7 38 c-3 20 -12 65 -19 100
l-13 62 357 0 c376 0 381 1 381 46 0 43 -9 44 -391 42 l-364 -3 -46 140 c-26
77 -60 172 -78 212 -17 40 -31 74 -31 77 0 3 1196 7 2658 8 l2657 3 3 32 c2
23 -2 34 -17 42 -14 8 -806 10 -2685 9 l-2666 -3 -32 60 c-43 81 -164 259
-240 353 -96 120 -292 308 -418 404 -371 280 -748 433 -1213 493 -146 19 -443
18 -587 -1z m576 -88 c606 -72 1159 -372 1556 -846 470 -560 653 -1321 492
-2045 -95 -425 -306 -812 -614 -1129 -143 -147 -236 -225 -393 -330 -289 -193
-584 -309 -947 -373 -84 -14 -158 -18 -370 -18 -283 0 -361 8 -574 61 -842
210 -1509 867 -1730 1707 -116 440 -100 925 44 1357 121 361 303 654 580 931
184 185 337 299 563 423 231 126 551 227 827 261 144 17 420 18 566 1z"/>
<path d="M7522 9050 c-290 -41 -545 -170 -743 -376 -71 -75 -150 -178 -179
-235 -16 -30 -26 -37 -71 -47 -63 -15 -200 -78 -266 -123 -170 -116 -305 -304
-370 -516 -24 -79 -27 -103 -27 -243 0 -130 4 -168 22 -235 92 -333 339 -577
672 -664 l65 -17 3 -387 2 -387 930 0 930 0 0 379 0 378 93 7 c328 23 583 237
658 554 40 168 11 360 -78 511 -45 75 -134 175 -192 215 -23 16 -43 38 -45 50
-3 12 -12 65 -21 119 -81 488 -465 886 -965 998 -99 22 -324 32 -418 19z m344
-95 c243 -42 458 -153 626 -322 108 -109 160 -181 223 -308 63 -127 99 -250
116 -387 l11 -98 43 -25 c62 -36 154 -132 198 -206 50 -84 78 -176 84 -275 8
-113 -10 -201 -64 -313 -103 -215 -306 -343 -548 -345 -110 0 -208 23 -297 71
l-48 26 -102 -41 c-276 -109 -570 -110 -845 -5 -87 33 -98 35 -127 24 -237
-97 -481 -99 -688 -8 -169 75 -328 227 -412 394 -172 344 -76 776 227 1019 81
65 223 136 311 156 52 11 62 18 84 53 122 194 231 313 375 409 244 162 552
229 833 181z m390 -2308 c27 -13 70 -30 97 -37 l47 -13 0 -343 0 -344 -840 0
-840 0 0 334 0 333 108 7 c114 7 194 24 280 58 l53 21 107 -36 c159 -54 240
-67 410 -67 174 0 290 20 429 73 48 19 91 35 94 36 3 0 27 -10 55 -22z"/>
<path d="M7496 8734 c-188 -37 -334 -114 -475 -248 -170 -164 -266 -366 -287
-607 -5 -63 -4 -78 11 -92 19 -20 48 -22 63 -4 5 6 13 50 17 97 19 226 128
437 299 581 137 116 352 199 516 199 50 0 70 13 70 45 0 12 -5 26 -12 33 -16
16 -114 14 -202 -4z"/>
<path d="M602 7984 c-203 -37 -383 -138 -485 -273 -228 -304 -34 -681 415
-803 71 -20 107 -23 248 -22 194 0 267 16 420 91 79 38 109 60 175 127 45 45
92 103 105 131 14 28 26 52 27 54 2 2 11 -3 20 -11 43 -37 72 -38 794 -38 690
0 709 0 719 19 14 27 13 37 -6 55 -14 14 -93 16 -717 16 -674 0 -703 1 -733
19 -66 40 -66 142 0 182 30 18 59 19 788 19 674 0 758 2 772 16 21 20 20 37
-2 57 -17 16 -85 17 -779 17 l-760 0 -48 -25 c-27 -13 -50 -23 -51 -22 -1 1
-14 27 -29 57 -36 72 -142 176 -230 227 -184 106 -427 147 -643 107z m333 -89
c413 -72 621 -387 437 -663 -66 -100 -221 -198 -377 -238 -109 -28 -344 -26
-450 4 -187 54 -333 160 -397 290 -30 60 -33 75 -33 152 1 104 29 173 102 251
103 110 267 189 438 212 72 10 199 6 280 -8z"/>
<path d="M13737 7786 c-73 -31 -136 -82 -177 -146 -18 -27 -35 -50 -38 -50 -3
0 -13 6 -21 14 -41 35 -75 36 -840 36 -576 0 -760 -3 -769 -12 -7 -7 -12 -21
-12 -33 0 -12 5 -26 12 -33 9 -9 193 -12 767 -12 722 0 757 -1 787 -19 60 -37
69 -124 18 -172 l-26 -24 -711 -2 c-711 -3 -712 -3 -729 -24 -22 -26 -22 -33
-2 -53 14 -14 94 -16 728 -16 l713 0 45 24 46 24 31 -48 c60 -92 153 -152 268
-170 63 -11 1113 -14 1151 -4 26 8 39 48 22 69 -11 13 -73 15 -436 15 l-424 0
0 120 0 120 419 0 c368 0 421 2 435 16 19 18 21 45 4 62 -9 9 -119 12 -435 12
l-423 0 0 120 0 120 416 0 c267 0 422 4 435 10 21 12 25 50 7 68 -9 9 -157 12
-608 12 l-595 0 -58 -24z m313 -352 l0 -286 -117 4 c-146 6 -202 27 -268 100
-106 118 -94 299 26 401 61 53 106 65 242 66 l117 1 0 -286z"/>
<path d="M4490 5859 c-69 -83 -125 -156 -124 -163 2 -24 55 -96 70 -96 14 0
146 31 198 47 10 3 -15 -34 -59 -85 l-77 -91 33 -48 c18 -26 34 -50 35 -52 5
-6 377 91 388 100 10 9 -2 38 -32 76 l-17 21 -110 -29 c-60 -16 -113 -29 -118
-29 -4 0 26 40 68 88 41 49 75 94 75 101 0 6 -11 29 -26 50 l-25 39 -112 -29
c-61 -15 -113 -26 -115 -24 -2 1 25 36 59 76 34 41 68 81 75 89 11 13 8 23
-17 63 -16 26 -33 47 -37 47 -4 0 -64 -68 -132 -151z"/>
<path d="M10465 5949 c-17 -4 -45 -23 -62 -41 -35 -36 -134 -199 -127 -209 2
-4 64 -42 136 -84 73 -43 147 -86 165 -97 l32 -19 26 41 c37 58 39 67 18 74
-10 4 -29 15 -42 25 -20 15 -22 21 -12 39 8 16 21 22 45 22 73 0 93 10 120 60
14 26 26 51 26 55 0 4 -31 4 -69 0 l-69 -7 -7 34 c-9 40 -49 86 -92 104 -36
16 -45 16 -88 3z m53 -125 c12 -8 22 -24 22 -36 0 -25 -30 -78 -45 -78 -13 0
-75 38 -75 45 0 15 32 65 47 74 24 14 25 14 51 -5z"/>
<path d="M5119 5834 c-17 -21 0 -52 107 -190 450 -583 1102 -979 1813 -1104
358 -62 733 -61 1074 5 705 135 1338 525 1781 1099 107 138 124 169 107 190
-28 33 -49 17 -135 -97 -426 -570 -1020 -954 -1707 -1101 -203 -44 -355 -59
-599 -59 -474 0 -860 90 -1280 299 -415 207 -757 496 -1041 880 -70 96 -93
110 -120 78z"/>
<path d="M10125 5498 l-36 -43 34 -30 c18 -16 63 -56 100 -88 76 -66 85 -96
43 -136 -35 -33 -61 -23 -165 64 -49 41 -94 75 -99 75 -10 0 -72 -72 -72 -83
0 -8 164 -144 201 -166 52 -32 125 -29 176 8 97 70 124 172 69 256 -13 20
-173 161 -203 178 -6 4 -26 -10 -48 -35z"/>
<path d="M4935 5231 c-77 -72 -141 -135 -142 -139 -1 -4 46 -58 106 -120 l107
-114 32 27 c18 15 32 31 32 37 0 5 -30 41 -67 79 l-67 70 22 21 21 22 60 -65
60 -64 32 32 32 31 -56 63 c-54 59 -56 63 -40 81 16 18 19 16 88 -52 l71 -70
32 33 32 33 -107 113 -108 113 -140 -131z"/>
<path d="M9743 5049 c-173 -31 -253 -236 -140 -357 66 -71 188 -83 269 -26 99
70 134 181 86 273 -43 84 -126 126 -215 110z m76 -125 c36 -26 54 -79 41 -119
-29 -89 -152 -86 -190 4 -26 63 20 131 87 131 21 0 49 -7 62 -16z"/>
<path d="M5308 4861 c-65 -82 -118 -154 -118 -159 0 -5 50 -48 112 -97 119
-93 125 -95 156 -42 17 28 17 28 -23 60 -22 18 -52 43 -68 57 l-29 25 91 115
91 115 -43 37 c-23 21 -44 38 -47 38 -3 0 -58 -67 -122 -149z"/>
<path d="M5795 4669 c-73 -27 -125 -90 -140 -170 -22 -116 97 -241 226 -241
67 0 77 11 59 64 -15 42 -16 43 -58 40 -37 -3 -47 1 -77 31 -39 39 -44 70 -20
117 19 36 52 60 85 60 37 0 90 -36 102 -71 11 -31 20 -32 91 -13 49 14 -23
124 -111 168 -42 22 -119 29 -157 15z"/>
<path d="M8882 4525 c-103 -52 -148 -146 -118 -247 36 -125 169 -182 291 -124
122 58 166 171 109 285 -36 71 -86 104 -168 109 -51 3 -70 -1 -114 -23z m139
-95 c25 -14 49 -62 49 -99 0 -17 -11 -42 -26 -60 -21 -26 -33 -31 -68 -31 -68
0 -114 58 -101 127 11 59 89 93 146 63z"/>
<path d="M6272 4419 c-108 -54 -144 -195 -75 -293 51 -72 163 -117 240 -97 82
22 134 74 155 154 24 92 -22 185 -115 232 -66 32 -144 34 -205 4z m152 -93
c95 -40 55 -196 -51 -196 -47 0 -93 45 -93 92 0 58 48 115 98 117 7 1 27 -5
46 -13z"/>
<path d="M8382 4339 c-79 -21 -148 -41 -152 -44 -7 -4 5 -67 16 -87 2 -3 27 0
56 8 29 7 54 12 55 10 2 -2 19 -61 39 -132 19 -71 36 -134 39 -140 2 -9 19 -7
60 4 65 18 64 3 14 182 -16 58 -29 110 -29 116 0 6 25 16 55 23 44 10 55 16
51 29 -3 9 -8 29 -12 45 -8 35 -16 35 -192 -14z"/>
<path d="M6815 4288 c-9 -29 -58 -369 -53 -373 3 -3 28 -8 55 -12 l50 -5 6 33
c4 19 9 59 13 89 l7 55 38 -82 c49 -108 65 -110 140 -18 29 36 54 63 56 62 1
-2 -4 -41 -12 -87 -8 -46 -13 -86 -10 -88 5 -6 98 -21 103 -18 1 2 9 43 16 92
8 49 22 134 31 188 9 54 12 102 8 106 -4 4 -27 10 -49 13 l-42 5 -77 -95 c-43
-51 -81 -90 -86 -86 -4 4 -26 55 -50 111 -32 79 -48 106 -66 113 -34 13 -73
11 -78 -3z"/>
<path d="M7610 4230 l-145 -5 0 -67 c0 -38 2 -126 3 -198 l2 -130 99 0 c54 0
126 3 160 6 l61 7 0 43 0 44 -100 0 -100 0 0 30 0 29 83 3 82 3 3 42 3 42 -88
3 c-81 3 -88 5 -91 24 -4 27 19 34 121 34 l78 0 -3 47 c-2 25 -7 47 -13 48 -5
0 -75 -2 -155 -5z"/>
</g>
</svg>
