<svg aria-hidden="true" style="position: absolute; width: 0; height: 0; overflow: hidden;" version="1.1" xmlns="http://www.w3.org/2000/svg" xmlns:xlink="http://www.w3.org/1999/xlink">
<defs>
<symbol id="icon-autograph" viewBox="0 0 20 20">
<path d="M5.75 9.766c0.048-0.008 0.084 0.008 0.108 0.048 0.028 0.036 0.034 0.076 0.018 0.12-0.012 0.040-0.042 0.064-0.090 0.072-0.124 0.016-0.262 0.038-0.414 0.066-0.208 0.712-0.534 1.368-0.978 1.968s-0.98 1.1-1.608 1.5c-0.128 0.084-0.23 0.148-0.306 0.192-0.076 0.048-0.192 0.114-0.348 0.198-0.152 0.088-0.288 0.154-0.408 0.198s-0.252 0.086-0.396 0.126c-0.14 0.044-0.274 0.062-0.402 0.054-0.128-0.004-0.244-0.032-0.348-0.084-0.156-0.076-0.262-0.182-0.318-0.318-0.056-0.132-0.064-0.274-0.024-0.426 0.036-0.152 0.088-0.296 0.156-0.432 0.064-0.136 0.142-0.262 0.234-0.378 0.548-0.716 1.218-1.314 2.010-1.794 0.792-0.484 1.64-0.82 2.544-1.008 0.092-0.344 0.156-0.688 0.192-1.032 0.036-0.348 0.038-0.702 0.006-1.062-0.028-0.36-0.092-0.698-0.192-1.014s-0.252-0.612-0.456-0.888c-0.2-0.276-0.442-0.504-0.726-0.684-0.216-0.136-0.45-0.238-0.702-0.306-0.248-0.072-0.498-0.108-0.75-0.108-0.248 0-0.496 0.044-0.744 0.132-0.244 0.084-0.464 0.208-0.66 0.372-0.384 0.324-0.636 0.734-0.756 1.23s-0.082 0.972 0.114 1.428c0.020 0.048 0.016 0.090-0.012 0.126-0.028 0.032-0.064 0.048-0.108 0.048-0.044-0.004-0.076-0.028-0.096-0.072-0.124-0.284-0.192-0.576-0.204-0.876s0.024-0.58 0.108-0.84c0.084-0.264 0.212-0.512 0.384-0.744 0.172-0.236 0.37-0.434 0.594-0.594 0.228-0.16 0.486-0.28 0.774-0.36 0.288-0.084 0.584-0.112 0.888-0.084 0.388 0.036 0.74 0.138 1.056 0.306 0.32 0.168 0.586 0.38 0.798 0.636 0.212 0.252 0.39 0.542 0.534 0.87 0.148 0.328 0.252 0.668 0.312 1.020 0.064 0.348 0.094 0.704 0.090 1.068-0.008 0.456-0.068 0.914-0.18 1.374 0.12-0.020 0.222-0.036 0.306-0.048zM4.802 10.918c0.116-0.24 0.218-0.502 0.306-0.786-0.88 0.196-1.706 0.532-2.478 1.008-0.768 0.472-1.39 1.054-1.866 1.746-0.204 0.288-0.306 0.506-0.306 0.654 0 0.108 0.018 0.198 0.054 0.27 0.036 0.076 0.078 0.13 0.126 0.162 0.048 0.036 0.11 0.058 0.186 0.066 0.080 0.008 0.152 0.008 0.216 0s0.142-0.026 0.234-0.054c0.092-0.024 0.16-0.046 0.204-0.066 0.044-0.016 0.102-0.038 0.174-0.066 0.012-0.004 0.022-0.008 0.030-0.012 0.444-0.18 0.862-0.41 1.254-0.69 0.82-0.596 1.442-1.34 1.866-2.232zM6.588 9.97c0.188 0.048 0.32 0.164 0.396 0.348 0.076 0.18 0.080 0.362 0.012 0.546-0.060 0.176-0.15 0.338-0.27 0.486s-0.256 0.226-0.408 0.234c-0.156 0.008-0.27-0.046-0.342-0.162-0.068-0.116-0.088-0.25-0.060-0.402 0.056-0.312 0.218-0.624 0.486-0.936 0.008-0.008 0.018-0.016 0.030-0.024 0.028-0.076 0.080-0.106 0.156-0.090zM6.192 11.308c0.076 0.068 0.19 0.022 0.342-0.138 0.176-0.184 0.27-0.376 0.282-0.576 0.012-0.172-0.062-0.294-0.222-0.366-0.032 0.036-0.066 0.080-0.102 0.132-0.036 0.048-0.078 0.108-0.126 0.18s-0.090 0.144-0.126 0.216c-0.036 0.072-0.066 0.144-0.090 0.216-0.024 0.068-0.034 0.132-0.030 0.192 0.008 0.060 0.032 0.108 0.072 0.144zM9.034 10.036c0.040-0.028 0.082-0.032 0.126-0.012s0.068 0.050 0.072 0.090c0.008 0.040-0.006 0.076-0.042 0.108-0.292 0.204-0.558 0.402-0.798 0.594 0.108 0.068 0.196 0.136 0.264 0.204 0.072 0.064 0.134 0.138 0.186 0.222 0.056 0.084 0.076 0.176 0.060 0.276s-0.066 0.2-0.15 0.3c-0.084 0.1-0.194 0.192-0.33 0.276-0.136 0.088-0.28 0.154-0.432 0.198-0.148 0.048-0.29 0.046-0.426-0.006s-0.234-0.158-0.294-0.318c-0.092-0.252 0.042-0.542 0.402-0.87 0.088-0.076 0.188-0.162 0.3-0.258-0.008-0.004-0.060-0.032-0.156-0.084s-0.16-0.088-0.192-0.108c-0.032-0.020-0.084-0.054-0.156-0.102-0.068-0.048-0.122-0.094-0.162-0.138s-0.076-0.092-0.108-0.144c-0.124-0.216-0.056-0.458 0.204-0.726 0.224-0.232 0.482-0.382 0.774-0.45 0.32-0.076 0.522-0.006 0.606 0.21 0.012 0.036 0.022 0.076 0.030 0.12 0.004 0.048-0.012 0.086-0.048 0.114-0.036 0.024-0.076 0.030-0.12 0.018-0.044-0.016-0.068-0.048-0.072-0.096-0.032-0.22-0.234-0.218-0.606 0.006-0.164 0.096-0.288 0.186-0.372 0.27-0.072 0.072-0.124 0.134-0.156 0.186-0.028 0.052-0.036 0.11-0.024 0.174 0.016 0.060 0.060 0.124 0.132 0.192 0.036 0.032 0.078 0.066 0.126 0.102 0.048 0.032 0.088 0.058 0.12 0.078 0.036 0.020 0.086 0.050 0.15 0.090 0.068 0.036 0.112 0.060 0.132 0.072 0.012 0.004 0.028 0.014 0.048 0.030 0.024 0.012 0.042 0.020 0.054 0.024 0.264-0.212 0.55-0.426 0.858-0.642zM8.494 11.734c0.052-0.056 0.090-0.11 0.114-0.162s0.032-0.1 0.024-0.144c-0.008-0.048-0.024-0.092-0.048-0.132-0.020-0.040-0.054-0.080-0.102-0.12-0.044-0.040-0.088-0.074-0.132-0.102-0.044-0.032-0.096-0.066-0.156-0.102-0.108 0.092-0.21 0.178-0.306 0.258-0.016 0.016-0.044 0.040-0.084 0.072-0.036 0.032-0.066 0.058-0.090 0.078s-0.050 0.048-0.078 0.084c-0.024 0.032-0.044 0.064-0.060 0.096-0.088 0.196-0.080 0.336 0.024 0.42 0.108 0.084 0.252 0.102 0.432 0.054 0.148-0.036 0.302-0.136 0.462-0.3zM11.427 10.006c0.036-0.036 0.074-0.044 0.114-0.024 0.040 0.016 0.064 0.046 0.072 0.090 0.012 0.040 0.002 0.080-0.030 0.12-0.824 0.844-1.536 1.194-2.136 1.050-0.212-0.048-0.372-0.14-0.48-0.276-0.108-0.14-0.15-0.294-0.126-0.462 0.020-0.172 0.098-0.336 0.234-0.492 0.108-0.116 0.248-0.21 0.42-0.282 0.256-0.104 0.382-0.040 0.378 0.192 0 0.004 0 0.008 0 0.012-0.004 0.156-0.098 0.304-0.282 0.444s-0.35 0.186-0.498 0.138c-0.016 0.18 0.060 0.314 0.228 0.402s0.352 0.114 0.552 0.078c0.284-0.052 0.548-0.162 0.792-0.33 0.248-0.172 0.502-0.392 0.762-0.66zM9.525 9.97c-0.056 0.004-0.118 0.038-0.186 0.102-0.064 0.064-0.12 0.134-0.168 0.21 0.084 0.040 0.186-0.008 0.306-0.144 0.080-0.092 0.102-0.148 0.066-0.168-0.004 0-0.010 0-0.018 0zM12.767 10.294c0.048-0.008 0.084 0.006 0.108 0.042 0.028 0.036 0.034 0.076 0.018 0.12-0.012 0.044-0.042 0.070-0.090 0.078-0.412 0.064-0.812 0.192-1.2 0.384-0.012 0.48-0.016 0.968-0.012 1.464 0.068 0.056 0.116 0.098 0.144 0.126 0.336 0.312 0.552 0.822 0.648 1.53 0.036 0.268 0.026 0.534-0.030 0.798-0.084 0.412-0.264 0.504-0.54 0.276-0.080-0.068-0.15-0.162-0.21-0.282-0.056-0.116-0.1-0.232-0.132-0.348-0.028-0.116-0.052-0.258-0.072-0.426-0.016-0.168-0.026-0.308-0.030-0.42-0.004-0.108-0.008-0.246-0.012-0.414-0.004-0.164-0.006-0.272-0.006-0.324-0.004-0.088-0.008-0.206-0.012-0.354-0.408-0.308-0.888-0.436-1.44-0.384-0.060 0.004-0.1-0.022-0.12-0.078-0.024-0.052-0.014-0.098 0.030-0.138 0.548-0.52 1.066-0.912 1.554-1.176 0.024-0.508 0.060-1.018 0.108-1.53 0.004-0.052 0.010-0.146 0.018-0.282 0.012-0.136 0.022-0.26 0.030-0.372 0.008-0.116 0.022-0.252 0.042-0.408 0.020-0.16 0.044-0.302 0.072-0.426s0.068-0.248 0.12-0.372c0.052-0.128 0.11-0.23 0.174-0.306 0.068-0.076 0.152-0.132 0.252-0.168 0.1-0.040 0.21-0.048 0.33-0.024 0.048 0.012 0.080 0.040 0.096 0.084s0.012 0.084-0.012 0.12c-0.024 0.036-0.060 0.048-0.108 0.036-0.096-0.020-0.186 0.012-0.27 0.096-0.080 0.084-0.15 0.21-0.21 0.378-0.056 0.168-0.108 0.362-0.156 0.582-0.044 0.22-0.082 0.472-0.114 0.756-0.032 0.28-0.058 0.558-0.078 0.834-0.016 0.276-0.030 0.57-0.042 0.882 0.372-0.176 0.756-0.294 1.152-0.354zM12.172 14.626c0.032-0.356-0.002-0.696-0.102-1.020-0.1-0.32-0.258-0.596-0.474-0.828 0.008 0.296 0.016 0.502 0.024 0.618 0.036 0.468 0.086 0.826 0.15 1.074 0.052 0.196 0.122 0.334 0.21 0.414 0.092 0.084 0.152 0.030 0.18-0.162l0.012-0.096zM11.333 12.214c-0.004-0.396 0.002-0.782 0.018-1.158-0.368 0.208-0.752 0.494-1.152 0.858 0.424 0.012 0.802 0.112 1.134 0.3zM12.845 9.886c0.020-0.044 0.052-0.068 0.096-0.072s0.080 0.010 0.108 0.042c0.032 0.032 0.040 0.072 0.024 0.12-0.204 0.512-0.302 1.032-0.294 1.56 0 0.068-0.034 0.102-0.102 0.102-0.072 0-0.116-0.032-0.132-0.096-0.004-0.012-0.006-0.024-0.006-0.036-0.008-0.54 0.094-1.080 0.306-1.62zM13.247 9.196c0.028 0.068 0.008 0.122-0.060 0.162l-0.426 0.252c-0.028 0.016-0.058 0.018-0.090 0.006-0.032-0.016-0.054-0.038-0.066-0.066-0.028-0.064-0.008-0.118 0.060-0.162l0.426-0.252c0.028-0.016 0.058-0.016 0.090 0 0.032 0.012 0.054 0.032 0.066 0.060zM17.4 10.024c0.032-0.036 0.070-0.050 0.114-0.042 0.048 0.008 0.080 0.032 0.096 0.072 0.020 0.036 0.016 0.074-0.012 0.114-0.1 0.124-0.218 0.252-0.354 0.384s-0.296 0.264-0.48 0.396c-0.184 0.128-0.364 0.23-0.54 0.306-0.176 0.072-0.356 0.1-0.54 0.084-0.184-0.020-0.342-0.1-0.474-0.24-0.072-0.080-0.17-0.198-0.294-0.354-0.12-0.156-0.208-0.266-0.264-0.33-0.036-0.036-0.070-0.064-0.102-0.084-0.032-0.024-0.060-0.040-0.084-0.048s-0.050-0.006-0.078 0.006c-0.028 0.012-0.052 0.024-0.072 0.036-0.016 0.008-0.038 0.028-0.066 0.060s-0.048 0.058-0.060 0.078c-0.012 0.020-0.034 0.054-0.066 0.102-0.032 0.044-0.054 0.074-0.066 0.090-0.020 0.032-0.074 0.134-0.162 0.306-0.084 0.168-0.172 0.312-0.264 0.432-0.088 0.116-0.172 0.18-0.252 0.192-0.048 0.008-0.086-0.006-0.114-0.042-0.028-0.040-0.048-0.082-0.060-0.126-0.016-0.048-0.022-0.104-0.018-0.168 0.004-0.068 0.008-0.12 0.012-0.156s0.014-0.094 0.030-0.174c0.016-0.080 0.026-0.126 0.030-0.138 0.024-0.152 0.070-0.368 0.138-0.648 0.068-0.284 0.108-0.454 0.12-0.51 0.012-0.044 0.040-0.074 0.084-0.090s0.084-0.012 0.12 0.012c0.036 0.024 0.048 0.060 0.036 0.108-0.020 0.088-0.054 0.234-0.102 0.438-0.048 0.2-0.084 0.354-0.108 0.462-0.048 0.236-0.078 0.4-0.090 0.492 0 0.012 0 0.030 0 0.054 0.032-0.060 0.072-0.124 0.12-0.192 0.052-0.068 0.106-0.14 0.162-0.216s0.096-0.134 0.12-0.174c0.012-0.016 0.028-0.040 0.048-0.072 0.024-0.032 0.044-0.060 0.060-0.084s0.034-0.050 0.054-0.078c0.024-0.032 0.046-0.060 0.066-0.084s0.042-0.048 0.066-0.072c0.024-0.024 0.048-0.046 0.072-0.066 0.028-0.020 0.054-0.036 0.078-0.048 0.064-0.016 0.12-0.024 0.168-0.024s0.1 0.018 0.156 0.054c0.056 0.036 0.104 0.074 0.144 0.114 0.044 0.040 0.090 0.090 0.138 0.15 0.052 0.060 0.094 0.116 0.126 0.168 0.036 0.048 0.072 0.1 0.108 0.156 0.040 0.056 0.074 0.1 0.102 0.132 0.14 0.172 0.266 0.274 0.378 0.306 0.112 0.028 0.272 0.004 0.48-0.072 0.488-0.18 0.92-0.504 1.296-0.972zM19.771 10.006c0.036-0.036 0.074-0.044 0.114-0.024 0.040 0.016 0.064 0.046 0.072 0.090 0.012 0.040 0.002 0.080-0.030 0.12-0.824 0.844-1.536 1.194-2.136 1.050-0.212-0.048-0.372-0.14-0.48-0.276-0.108-0.14-0.15-0.294-0.126-0.462 0.020-0.172 0.098-0.336 0.234-0.492 0.108-0.116 0.248-0.21 0.42-0.282 0.256-0.104 0.382-0.040 0.378 0.192 0 0.004 0 0.008 0 0.012-0.004 0.156-0.098 0.304-0.282 0.444s-0.35 0.186-0.498 0.138c-0.016 0.18 0.060 0.314 0.228 0.402s0.352 0.114 0.552 0.078c0.284-0.052 0.548-0.162 0.792-0.33 0.248-0.172 0.502-0.392 0.762-0.66zM17.869 9.97c-0.056 0.004-0.118 0.038-0.186 0.102-0.064 0.064-0.12 0.134-0.168 0.21 0.084 0.040 0.186-0.008 0.306-0.144 0.080-0.092 0.102-0.148 0.066-0.168-0.004 0-0.010 0-0.018 0z"></path>
</symbol>
<symbol id="icon-clock" viewBox="0 0 20 20">
<path stroke-linejoin="round" stroke-linecap="round" stroke-miterlimit="4" stroke-width="1.4286" d="M3.313 4.003c-1.454 1.627-2.267 3.722-2.292 5.899-0.058 4.978 4.009 9.061 8.979 9.078 4.97 0.008 8.979-4.017 8.979-8.979 0-4.888-3.91-8.872-8.774-8.979-0.025 0-0.058 0-0.082 0.016-0.025 0.008-0.049 0.025-0.066 0.041s-0.033 0.041-0.049 0.066c-0.008 0.025-0.016 0.049-0.016 0.082v3.91"></path>
<path d="M8.949 11.052l-3.697-5.282c-0.058-0.074-0.074-0.164-0.066-0.255s0.041-0.173 0.107-0.238 0.148-0.099 0.238-0.107c0.082-0.008 0.173 0.016 0.246 0.066l5.282 3.697c0.32 0.23 0.542 0.583 0.608 0.978s-0.025 0.797-0.255 1.125-0.575 0.55-0.969 0.624c-0.394 0.074-0.797-0.016-1.126-0.238-0.14-0.099-0.271-0.222-0.37-0.37z"></path>
</symbol>
<symbol id="icon-facebook" viewBox="0 0 20 20">
<path d="M19.688 9.896c0-5.235-4.408-9.479-9.844-9.479s-9.844 4.244-9.844 9.479c0 4.731 3.599 8.653 8.306 9.364v-6.624h-2.5v-2.741h2.5v-2.088c0-2.375 1.47-3.688 3.718-3.688 1.077 0 2.204 0.185 2.204 0.185v2.333h-1.242c-1.222 0-1.604 0.73-1.604 1.481v1.777h2.73l-0.436 2.741h-2.293v6.624c4.707-0.711 8.306-4.633 8.306-9.365z"></path>
</symbol>
<symbol id="icon-hero-img-sticker" viewBox="0 0 20 20">
<path d="M19.688 9.896c0-5.235-4.408-9.479-9.844-9.479s-9.844 4.244-9.844 9.479c0 4.731 3.599 8.653 8.306 9.364v-6.624h-2.5v-2.741h2.5v-2.088c0-2.375 1.47-3.688 3.718-3.688 1.077 0 2.204 0.185 2.204 0.185v2.333h-1.242c-1.222 0-1.604 0.73-1.604 1.481v1.777h2.73l-0.436 2.741h-2.293v6.624c4.707-0.711 8.306-4.633 8.306-9.365z"></path>
</symbol>
<symbol id="icon-insta" viewBox="0 0 20 20">
<path d="M13.945 1.996c1.087 0.003 2.128 0.42 2.897 1.16s1.202 1.743 1.205 2.79v7.899c-0.003 1.047-0.436 2.049-1.205 2.79s-1.81 1.157-2.897 1.16h-8.203c-1.087-0.003-2.128-0.42-2.897-1.16s-1.202-1.743-1.205-2.79v-7.899c0.003-1.047 0.436-2.049 1.205-2.79s1.81-1.157 2.897-1.16h8.203zM13.945 0.417h-8.203c-3.158 0-5.742 2.488-5.742 5.53v7.899c0 3.041 2.584 5.53 5.742 5.53h8.203c3.158 0 5.742-2.488 5.742-5.53v-7.899c0-3.041-2.584-5.53-5.742-5.53z"></path>
<path d="M15.176 5.946c-0.243 0-0.481-0.069-0.684-0.2s-0.36-0.315-0.453-0.532c-0.093-0.217-0.117-0.455-0.070-0.685s0.165-0.441 0.337-0.607 0.391-0.279 0.63-0.324c0.239-0.046 0.486-0.022 0.711 0.067s0.417 0.242 0.552 0.436c0.135 0.195 0.207 0.424 0.207 0.658 0 0.156-0.031 0.31-0.093 0.454s-0.152 0.275-0.267 0.385-0.25 0.197-0.4 0.257c-0.149 0.059-0.31 0.090-0.471 0.090zM9.844 6.736c0.649 0 1.283 0.185 1.823 0.533s0.96 0.841 1.208 1.418c0.248 0.577 0.313 1.213 0.187 1.826s-0.439 1.176-0.898 1.618-1.044 0.743-1.68 0.865c-0.637 0.122-1.296 0.059-1.896-0.18s-1.112-0.644-1.473-1.164c-0.361-0.52-0.553-1.131-0.553-1.756 0.001-0.838 0.347-1.641 0.962-2.233s1.449-0.926 2.319-0.926zM9.844 5.156c-0.973 0-1.925 0.278-2.734 0.799s-1.44 1.261-1.813 2.127c-0.373 0.866-0.47 1.819-0.28 2.738s0.659 1.764 1.347 2.427 1.565 1.114 2.52 1.297c0.955 0.183 1.944 0.089 2.844-0.27s1.668-0.966 2.209-1.746c0.541-0.779 0.829-1.696 0.829-2.633 0-1.257-0.518-2.463-1.442-3.351s-2.175-1.388-3.48-1.388z"></path>
</symbol>
<symbol id="icon-pinterest" viewBox="0 0 20 20">
<path d="M9.852 0.4c-5.303 0-9.602 4.298-9.602 9.598 0 3.929 2.366 7.306 5.748 8.792-0.026-0.668-0.004-1.474 0.167-2.202 0.184-0.78 1.235-5.232 1.235-5.232s-0.309-0.613-0.309-1.517c0-1.423 0.823-2.485 1.852-2.485 0.874 0 1.295 0.656 1.295 1.44 0 0.878-0.562 2.19-0.849 3.406-0.24 1.020 0.51 1.847 1.517 1.847 1.818 0 3.044-2.335 3.044-5.103 0-2.104-1.419-3.676-3.995-3.676-2.911 0-4.728 2.172-4.728 4.598 0 0.836 0.249 1.427 0.634 1.881 0.176 0.21 0.201 0.296 0.137 0.536-0.047 0.176-0.15 0.6-0.197 0.771-0.064 0.244-0.261 0.33-0.48 0.24-1.342-0.548-1.968-2.014-1.968-3.668 0-2.725 2.302-5.994 6.863-5.994 3.665 0 6.079 2.652 6.079 5.497 0 3.766-2.096 6.577-5.183 6.577-1.037 0-2.010-0.561-2.345-1.195 0 0-0.557 2.211-0.677 2.639-0.201 0.741-0.6 1.478-0.964 2.057 0.884 0.261 1.8 0.393 2.722 0.394 5.303 0 9.602-4.298 9.602-9.598s-4.295-9.602-9.598-9.602z"></path>
</symbol>
<symbol id="icon-price-badge" viewBox="0 0 20 20">
<path d="M9.126 4.671c0.302-0.305 1.011-0.305 1.313 0 0.253 0.256 0.814 0.306 1.172 0.106 0.427-0.24 1.107-0.114 1.26 0.232 0.128 0.29 0.643 0.438 1.077 0.308 0.517-0.155 1.114 0.086 1.104 0.445-0.008 0.301 0.42 0.533 0.894 0.486 0.566-0.057 1.030 0.279 0.86 0.622-0.143 0.287 0.163 0.586 0.64 0.624 0.569 0.045 0.863 0.449 0.545 0.748-0.266 0.251-0.107 0.591 0.333 0.711 0.525 0.144 0.626 0.583 0.187 0.814-0.368 0.193-0.368 0.548 0 0.742 0.439 0.231 0.338 0.67-0.187 0.814-0.44 0.121-0.6 0.461-0.333 0.711 0.318 0.299 0.023 0.703-0.545 0.748-0.477 0.038-0.783 0.336-0.64 0.624 0.171 0.343-0.294 0.679-0.86 0.622-0.474-0.048-0.902 0.185-0.894 0.486 0.010 0.359-0.587 0.599-1.104 0.445-0.434-0.13-0.949 0.018-1.077 0.308-0.152 0.346-0.833 0.471-1.26 0.232-0.358-0.201-0.918-0.15-1.172 0.106-0.302 0.305-1.011 0.305-1.313 0-0.253-0.256-0.814-0.306-1.172-0.106-0.427 0.24-1.107 0.115-1.26-0.232-0.128-0.29-0.643-0.438-1.077-0.308-0.517 0.155-1.114-0.086-1.104-0.445 0.008-0.301-0.42-0.533-0.894-0.486-0.566 0.057-1.030-0.279-0.86-0.622 0.143-0.287-0.163-0.586-0.64-0.624-0.569-0.045-0.863-0.449-0.545-0.748 0.266-0.25 0.107-0.591-0.333-0.711-0.525-0.144-0.626-0.583-0.187-0.814 0.368-0.193 0.368-0.548 0-0.742-0.439-0.231-0.338-0.67 0.187-0.814 0.44-0.121 0.6-0.461 0.333-0.711-0.318-0.299-0.023-0.703 0.545-0.748 0.477-0.038 0.783-0.336 0.64-0.624-0.171-0.343 0.294-0.679 0.86-0.622 0.474 0.048 0.902-0.185 0.894-0.486-0.009-0.359 0.587-0.599 1.104-0.445 0.434 0.13 0.949-0.018 1.077-0.308 0.152-0.346 0.833-0.471 1.26-0.232 0.358 0.201 0.918 0.15 1.172-0.106z"></path>
<path d="M9.561 4.399c0.302-0.305 1.011-0.305 1.313 0 0.253 0.256 0.814 0.306 1.172 0.106 0.427-0.24 1.107-0.114 1.26 0.232 0.128 0.29 0.643 0.438 1.077 0.308 0.517-0.155 1.114 0.086 1.104 0.445-0.008 0.301 0.42 0.533 0.894 0.486 0.566-0.057 1.030 0.279 0.86 0.622-0.143 0.287 0.163 0.586 0.64 0.624 0.569 0.045 0.863 0.449 0.545 0.748-0.266 0.25-0.107 0.591 0.333 0.711 0.525 0.144 0.626 0.583 0.187 0.814-0.368 0.193-0.368 0.548 0 0.742 0.439 0.231 0.338 0.67-0.187 0.814-0.44 0.121-0.6 0.461-0.333 0.711 0.318 0.299 0.023 0.703-0.545 0.748-0.477 0.038-0.783 0.336-0.64 0.624 0.171 0.343-0.294 0.679-0.86 0.622-0.474-0.048-0.902 0.185-0.894 0.486 0.010 0.359-0.587 0.599-1.104 0.445-0.434-0.13-0.949 0.018-1.077 0.308-0.152 0.346-0.833 0.471-1.26 0.232-0.358-0.201-0.918-0.15-1.172 0.106-0.302 0.305-1.011 0.305-1.313 0-0.253-0.256-0.814-0.306-1.172-0.106-0.427 0.24-1.107 0.115-1.26-0.232-0.128-0.29-0.643-0.438-1.077-0.308-0.517 0.155-1.114-0.086-1.104-0.445 0.008-0.301-0.42-0.533-0.894-0.486-0.566 0.057-1.030-0.279-0.86-0.622 0.143-0.287-0.163-0.586-0.64-0.624-0.569-0.045-0.863-0.449-0.545-0.748 0.266-0.251 0.107-0.591-0.333-0.711-0.525-0.144-0.626-0.583-0.187-0.814 0.368-0.193 0.368-0.548 0-0.742-0.439-0.231-0.338-0.67 0.187-0.814 0.44-0.121 0.6-0.461 0.333-0.711-0.318-0.299-0.023-0.703 0.545-0.748 0.477-0.038 0.783-0.336 0.64-0.624-0.171-0.343 0.294-0.679 0.86-0.622 0.474 0.048 0.902-0.185 0.894-0.486-0.009-0.359 0.587-0.599 1.104-0.445 0.434 0.13 0.949-0.018 1.077-0.308 0.152-0.346 0.833-0.471 1.26-0.232 0.358 0.201 0.918 0.15 1.172-0.106z"></path>
</symbol>
<symbol id="icon-twitter" viewBox="0 0 20 20">
<path d="M19.591 3.769c-0.73 0.317-1.503 0.526-2.294 0.621 0.831-0.487 1.456-1.26 1.758-2.174-0.786 0.459-1.644 0.782-2.538 0.953-0.376-0.394-0.829-0.708-1.331-0.922s-1.041-0.324-1.586-0.323c-2.208 0-3.994 1.761-3.994 3.931-0.002 0.302 0.033 0.603 0.103 0.896-1.583-0.074-3.133-0.478-4.551-1.186s-2.673-1.703-3.684-2.924c-0.355 0.598-0.542 1.28-0.543 1.976 0 1.363 0.711 2.568 1.785 3.274-0.636-0.015-1.259-0.183-1.817-0.491v0.049c0 1.907 1.379 3.493 3.205 3.854-0.343 0.092-0.697 0.138-1.052 0.138-0.252 0-0.504-0.024-0.751-0.073 0.507 1.562 1.984 2.698 3.734 2.73-1.422 1.096-3.167 1.688-4.962 1.683-0.319-0-0.637-0.019-0.953-0.057 1.826 1.166 3.948 1.783 6.115 1.777 7.357 0 11.376-5.991 11.376-11.188 0-0.17-0.004-0.341-0.013-0.507 0.78-0.555 1.455-1.244 1.993-2.036z"></path>
</symbol>
</defs>
</svg>
